<?xml version="1.0" encoding="utf-8" ?>
<svg baseProfile="tiny" height="683" version="1.2" width="1341" xmlns="http://www.w3.org/2000/svg" xmlns:ev="http://www.w3.org/2001/xml-events" xmlns:xlink="http://www.w3.org/1999/xlink"><defs /><path d="M 510,392 L 509,393 L 507,393 L 506,394 L 502,394 L 501,395 L 497,395 L 497,398 L 498,399 L 516,399 L 517,398 L 518,398 L 521,395 L 522,395 L 525,398 L 526,398 L 527,399 L 545,399 L 545,398 L 546,397 L 546,395 L 541,395 L 540,394 L 537,394 L 536,393 L 534,393 L 533,392 L 531,392 L 533,392 L 534,393 L 536,393 L 537,394 L 540,394 L 541,395 L 545,395 L 546,396 L 546,397 L 544,399 L 528,399 L 527,398 L 526,398 L 523,395 L 520,395 L 517,398 L 516,398 L 515,399 L 498,399 L 497,398 L 497,396 L 498,395 L 501,395 L 502,394 L 506,394 L 507,393 L 509,393 L 510,392 L 512,392 Z" fill="none" stroke="white" stroke-width="1" /><path d="M 698,384 L 697,385 L 695,385 L 694,386 L 693,386 L 691,388 L 690,388 L 689,389 L 689,390 L 687,392 L 687,395 L 686,396 L 686,399 L 696,399 L 696,397 L 697,396 L 697,395 L 698,394 L 699,394 L 700,393 L 701,393 L 702,392 L 704,392 L 705,393 L 706,393 L 709,396 L 709,398 L 710,399 L 720,399 L 720,397 L 719,396 L 719,393 L 718,392 L 718,391 L 713,386 L 712,386 L 711,385 L 709,385 L 708,384 Z" fill="none" stroke="white" stroke-width="1" /><path d="M 575,383 L 574,384 L 570,384 L 569,385 L 567,385 L 566,386 L 565,386 L 564,387 L 563,387 L 559,391 L 559,394 L 558,395 L 558,396 L 559,397 L 559,399 L 569,399 L 570,400 L 572,400 L 570,400 L 569,399 L 570,398 L 572,398 L 571,398 L 569,396 L 569,395 L 572,392 L 576,392 L 577,391 L 584,391 L 585,392 L 589,392 L 592,395 L 592,396 L 590,398 L 589,398 L 591,398 L 592,399 L 591,400 L 589,400 L 591,400 L 592,399 L 602,399 L 602,392 L 601,391 L 601,390 L 598,387 L 597,387 L 596,386 L 595,386 L 594,385 L 592,385 L 591,384 L 587,384 L 586,383 Z" fill="none" stroke="white" stroke-width="1" /><path d="M 499,383 L 499,390 L 512,390 L 500,390 L 499,389 L 499,384 L 500,383 L 543,383 L 544,384 L 544,389 L 543,390 L 531,390 L 544,390 L 544,383 Z" fill="none" stroke="white" stroke-width="1" /><path d="M 666,381 L 665,382 L 664,382 L 664,399 L 682,399 L 682,393 L 681,392 L 676,392 L 674,390 L 674,382 L 673,382 L 672,381 Z" fill="none" stroke="white" stroke-width="1" /><path d="M 645,305 L 645,307 L 646,308 L 646,309 L 645,310 L 645,311 L 645,310 L 646,309 L 646,308 L 645,307 L 645,306 L 646,305 L 648,307 L 648,310 L 647,311 L 648,310 L 648,309 L 649,308 L 646,305 Z" fill="none" stroke="white" stroke-width="1" /><path d="M 635,304 L 635,305 L 633,307 L 633,309 L 632,310 L 632,312 L 634,312 L 634,311 L 635,310 L 635,309 L 636,308 L 636,306 L 637,305 L 638,306 L 638,313 L 638,307 L 639,306 L 640,307 L 640,313 L 641,312 L 642,312 L 643,311 L 643,306 L 643,311 L 642,312 L 641,312 L 640,311 L 641,310 L 640,309 L 640,308 L 641,307 L 640,307 L 639,306 L 640,305 L 641,305 L 640,305 L 639,306 L 638,306 L 637,305 L 637,304 Z" fill="none" stroke="white" stroke-width="1" /><path d="M 464,274 L 464,279 L 465,279 L 467,277 L 467,275 L 468,274 L 469,275 L 469,280 L 468,281 L 467,280 L 468,281 L 469,281 L 469,274 L 467,274 L 467,277 L 465,279 L 464,278 Z" fill="none" stroke="white" stroke-width="1" /><path d="M 456,274 L 455,275 L 455,276 L 454,277 L 454,278 L 455,279 L 455,280 L 456,281 L 465,281 L 460,281 L 459,280 L 460,279 L 462,279 L 462,274 L 461,274 L 462,275 L 462,278 L 461,279 L 457,279 L 456,278 L 456,277 L 457,276 L 459,276 L 459,274 Z" fill="none" stroke="white" stroke-width="1" /><path d="M 504,246 L 504,249 L 503,250 L 504,250 L 504,247 L 505,246 L 506,246 L 508,248 L 508,250 L 508,247 L 507,247 L 506,246 Z" fill="none" stroke="white" stroke-width="1" /><path d="M 498,245 L 498,247 L 499,248 L 499,249 L 500,250 L 499,251 L 498,251 L 499,251 L 500,250 L 501,250 L 501,245 L 500,245 L 501,246 L 501,249 L 500,250 L 499,249 L 499,248 L 498,247 Z" fill="none" stroke="white" stroke-width="1" /><path d="M 510,244 L 509,245 L 508,245 L 509,245 L 510,246 L 510,250 L 510,246 L 509,245 L 510,244 L 512,244 L 513,245 L 513,249 L 512,250 L 513,250 L 513,245 L 512,244 Z" fill="none" stroke="white" stroke-width="1" /><path d="M 485,244 L 483,246 L 481,246 L 480,247 L 480,249 L 479,250 L 478,249 L 478,247 L 478,249 L 479,250 L 480,250 L 480,247 L 481,246 L 482,246 L 484,248 L 484,250 L 484,248 L 483,247 L 483,246 L 484,245 L 486,247 L 486,249 L 487,248 L 488,248 L 489,249 L 489,250 L 488,251 L 486,251 L 489,251 L 489,246 L 488,245 L 488,244 Z" fill="none" stroke="white" stroke-width="1" /><path d="M 522,243 L 521,244 L 521,251 L 522,252 L 523,252 L 524,251 L 524,250 L 523,249 L 523,246 L 524,245 L 524,244 L 524,245 L 523,246 L 523,250 L 524,251 L 523,252 L 522,252 L 521,251 L 521,244 Z" fill="none" stroke="white" stroke-width="1" /><path d="M 492,229 L 491,230 L 489,230 L 491,230 L 492,231 L 492,234 L 491,235 L 489,235 L 492,235 L 492,231 L 491,230 L 492,229 L 494,229 L 495,230 L 495,234 L 494,235 L 495,235 L 495,230 L 494,229 Z" fill="none" stroke="white" stroke-width="1" /><path d="M 563,228 L 563,230 L 564,231 L 564,234 L 563,235 L 563,237 L 563,235 L 564,234 L 564,231 L 563,230 Z" fill="none" stroke="white" stroke-width="1" /><path d="M 521,228 L 520,229 L 521,230 L 520,231 L 516,231 L 516,234 L 515,235 L 514,235 L 512,233 L 512,232 L 514,230 L 513,230 L 513,231 L 512,232 L 511,231 L 510,231 L 510,234 L 511,234 L 512,233 L 513,234 L 513,235 L 516,235 L 516,232 L 517,231 L 520,231 L 521,232 L 521,234 Z" fill="none" stroke="white" stroke-width="1" /><path d="M 503,228 L 502,229 L 502,235 L 502,229 L 503,228 L 506,228 L 507,229 L 507,230 L 508,230 L 506,228 Z" fill="none" stroke="white" stroke-width="1" /><path d="M 576,227 L 575,228 L 575,230 L 574,231 L 574,233 L 575,234 L 575,237 L 576,238 L 578,238 L 578,236 L 577,235 L 577,230 L 578,229 L 578,227 Z" fill="none" stroke="white" stroke-width="1" /><path d="M 559,227 L 557,229 L 557,230 L 556,231 L 555,230 L 555,235 L 554,236 L 552,236 L 554,236 L 556,234 L 557,235 L 557,234 L 556,234 L 555,233 L 555,232 L 556,231 L 557,231 L 559,233 L 559,235 L 560,236 L 560,237 L 560,236 L 559,235 L 559,233 L 558,232 L 559,231 L 559,230 L 560,229 L 560,228 Z" fill="none" stroke="white" stroke-width="1" /><path d="M 539,227 L 539,229 L 540,230 L 540,233 L 539,234 L 538,233 L 538,232 L 537,231 L 537,230 L 537,231 L 536,232 L 535,231 L 534,231 L 534,234 L 535,234 L 536,233 L 537,234 L 537,235 L 537,234 L 538,233 L 539,234 L 539,236 L 549,236 L 550,235 L 550,234 L 551,233 L 552,234 L 553,234 L 553,231 L 552,231 L 551,232 L 550,231 L 550,230 L 551,229 L 553,229 L 551,229 L 550,230 L 550,231 L 551,232 L 551,233 L 550,234 L 550,235 L 549,236 L 546,236 L 545,235 L 546,234 L 548,234 L 548,231 L 547,230 L 547,229 L 547,230 L 548,231 L 548,233 L 547,234 L 546,233 L 546,232 L 545,231 L 545,228 L 546,227 L 547,227 L 546,227 L 545,228 L 545,231 L 546,232 L 546,233 L 545,234 L 543,234 L 542,233 L 542,229 L 540,227 Z" fill="none" stroke="white" stroke-width="1" /><path d="M 528,227 L 528,228 L 526,230 L 525,229 L 524,229 L 523,228 L 523,234 L 524,234 L 525,235 L 524,236 L 523,236 L 525,236 L 525,234 L 524,234 L 523,233 L 523,232 L 524,231 L 525,231 L 527,233 L 527,235 L 527,229 L 529,227 L 530,227 L 531,228 L 530,229 L 530,231 L 529,232 L 529,235 L 529,233 L 530,232 L 530,230 L 531,229 L 532,230 L 532,231 L 532,230 L 531,229 L 531,227 Z" fill="none" stroke="white" stroke-width="1" /><path d="M 480,227 L 480,228 L 479,229 L 476,229 L 475,228 L 475,233 L 477,235 L 476,236 L 475,236 L 473,234 L 473,228 L 472,229 L 468,229 L 467,230 L 467,231 L 468,232 L 468,233 L 466,235 L 465,235 L 464,234 L 464,232 L 465,231 L 465,229 L 462,229 L 461,230 L 462,229 L 464,229 L 465,230 L 465,231 L 464,232 L 463,231 L 462,232 L 462,235 L 462,232 L 463,231 L 464,232 L 464,235 L 467,235 L 468,236 L 471,236 L 471,234 L 469,234 L 468,233 L 468,232 L 469,231 L 472,231 L 473,232 L 473,234 L 474,235 L 474,236 L 483,236 L 478,236 L 477,235 L 478,234 L 480,234 L 480,231 L 478,231 L 477,230 L 478,229 L 479,229 L 481,227 L 482,228 L 482,234 L 482,227 Z" fill="none" stroke="white" stroke-width="1" /><path d="M 457,227 L 456,228 L 456,229 L 455,230 L 454,230 L 455,231 L 454,232 L 455,232 L 457,234 L 456,235 L 457,235 L 457,234 L 456,233 L 457,232 L 459,232 L 460,233 L 460,235 L 460,232 L 459,232 L 458,231 L 458,230 L 459,229 L 459,227 Z" fill="none" stroke="white" stroke-width="1" /><path d="M 445,202 L 444,203 L 442,203 L 440,205 L 440,207 L 439,208 L 439,327 L 439,208 L 440,207 L 441,208 L 441,327 L 441,208 L 445,204 L 544,204 L 545,205 L 545,209 L 547,211 L 562,211 L 563,210 L 563,209 L 564,208 L 564,205 L 565,204 L 664,204 L 665,205 L 666,205 L 668,207 L 669,206 L 669,205 L 667,203 L 665,203 L 664,202 L 563,202 L 562,203 L 562,207 L 560,209 L 549,209 L 547,207 L 547,204 L 547,207 L 548,208 L 548,209 L 561,209 L 561,208 L 562,207 L 562,203 L 563,202 L 664,202 L 665,203 L 664,204 L 564,204 L 564,208 L 563,209 L 563,210 L 562,211 L 547,211 L 546,210 L 546,209 L 545,208 L 545,204 L 445,204 L 444,203 L 445,202 L 546,202 Z" fill="none" stroke="white" stroke-width="1" /><path d="M 751,113 L 750,114 L 748,114 L 747,115 L 746,115 L 744,117 L 744,118 L 743,119 L 743,121 L 742,122 L 742,126 L 743,127 L 743,129 L 744,130 L 744,131 L 746,133 L 747,133 L 748,134 L 750,134 L 751,135 L 798,135 L 799,134 L 801,134 L 802,133 L 803,133 L 805,131 L 805,130 L 806,129 L 806,127 L 807,126 L 807,122 L 806,121 L 806,119 L 805,118 L 805,117 L 803,115 L 802,115 L 801,114 L 799,114 L 798,113 Z" fill="none" stroke="white" stroke-width="1" /><path d="M 693,99 L 692,100 L 689,100 L 688,101 L 687,101 L 686,102 L 685,102 L 680,107 L 680,108 L 678,110 L 678,111 L 677,112 L 677,115 L 676,116 L 676,154 L 675,155 L 674,155 L 673,156 L 672,156 L 673,156 L 674,157 L 673,158 L 673,173 L 674,174 L 673,175 L 672,175 L 673,175 L 674,176 L 675,176 L 676,177 L 676,195 L 675,196 L 674,196 L 673,195 L 672,195 L 673,196 L 672,197 L 671,197 L 670,196 L 437,196 L 436,195 L 437,194 L 670,194 L 437,194 L 436,195 L 434,195 L 432,197 L 432,199 L 431,200 L 431,350 L 433,350 L 433,200 L 437,196 L 670,196 L 671,197 L 672,197 L 673,196 L 675,196 L 676,197 L 675,198 L 674,198 L 673,199 L 673,228 L 674,229 L 673,230 L 672,230 L 671,229 L 671,199 L 671,229 L 672,230 L 673,230 L 674,231 L 675,231 L 676,232 L 676,237 L 675,238 L 674,238 L 673,239 L 672,239 L 671,240 L 671,271 L 672,272 L 673,272 L 674,273 L 675,273 L 676,274 L 676,380 L 676,273 L 674,273 L 673,272 L 674,271 L 676,271 L 676,231 L 674,231 L 673,230 L 674,229 L 676,229 L 676,176 L 674,176 L 673,175 L 674,174 L 676,174 L 676,116 L 677,115 L 678,116 L 678,390 L 678,116 L 679,115 L 679,114 L 680,113 L 680,112 L 681,111 L 681,110 L 687,104 L 688,104 L 689,103 L 690,103 L 691,102 L 692,102 L 693,101 L 857,101 L 858,102 L 859,102 L 860,103 L 861,103 L 862,104 L 863,104 L 869,110 L 869,111 L 870,112 L 870,113 L 871,114 L 871,115 L 872,116 L 872,399 L 872,116 L 873,115 L 874,116 L 874,399 L 874,265 L 875,264 L 874,263 L 876,261 L 876,220 L 874,218 L 875,217 L 874,216 L 874,116 L 873,115 L 873,112 L 872,111 L 872,110 L 870,108 L 870,107 L 866,103 L 865,103 L 863,101 L 862,101 L 861,100 L 858,100 L 857,99 Z" fill="none" stroke="white" stroke-width="1" /></svg>